<svg width="48" height="48" viewBox="0 0 48 48" fill="none" xmlns="http://www.w3.org/2000/svg">
  <!-- Signal arcs (left side) -->
  <path d="M11 20 C11 13 15 8 21 6" stroke="#00D4FF" stroke-width="1.5" stroke-linecap="round" fill="none" stroke-opacity="0.35"/>
  <path d="M7 23 C7 14 12 7 20 4" stroke="#00D4FF" stroke-width="1.5" stroke-linecap="round" fill="none" stroke-opacity="0.2"/>
  <!-- Signal arcs (right side) -->
  <path d="M37 20 C37 13 33 8 27 6" stroke="#00D4FF" stroke-width="1.5" stroke-linecap="round" fill="none" stroke-opacity="0.35"/>
  <path d="M41 23 C41 14 36 7 28 4" stroke="#00D4FF" stroke-width="1.5" stroke-linecap="round" fill="none" stroke-opacity="0.2"/>
  <!-- Bell body -->
  <path d="M24 8 C16 8 12 14 12 22 L12 33 L10 37 L38 37 L36 33 L36 22 C36 14 32 8 24 8 Z"
    fill="rgba(0,212,255,0.08)"
    stroke="#00D4FF"
    stroke-width="1.5"
    stroke-linejoin="round"/>
  <!-- Bell top knob -->
  <line x1="24" y1="6" x2="24" y2="9" stroke="#00D4FF" stroke-width="1.5" stroke-linecap="round"/>
  <!-- Bell clapper (bottom arc) -->
  <path d="M20 37 C20 40.5 28 40.5 28 37" fill="none" stroke="#00D4FF" stroke-width="1.5" stroke-linecap="round"/>
  <!-- Notification badge -->
  <circle cx="36" cy="13" r="8" fill="#0A1628"/>
  <circle cx="36" cy="13" r="6.5" fill="#00D4FF" stroke="#0A1628" stroke-width="2"/>
  <!-- Exclamation mark in badge -->
  <line x1="36" y1="9.5" x2="36" y2="14" stroke="#0A1628" stroke-width="2" stroke-linecap="round"/>
  <circle cx="36" cy="16.5" r="1.2" fill="#0A1628"/>
</svg>
