<svg width="48" height="48" viewBox="0 0 48 48" fill="none" xmlns="http://www.w3.org/2000/svg">
  <!-- Document body -->
  <rect x="9" y="5" width="30" height="38" rx="3" fill="rgba(0,212,255,0.06)" stroke="#00D4FF" stroke-width="1.5"/>
  <!-- Folded corner (top-right) -->
  <path d="M30 5 L39 14 L30 14 Z" fill="rgba(0,212,255,0.18)" stroke="#00D4FF" stroke-width="1" stroke-linejoin="round"/>
  <!-- Fold line -->
  <line x1="30" y1="14" x2="39" y2="14" stroke="#00D4FF" stroke-width="1" stroke-opacity="0.4"/>
  <!-- Trend line chart on document -->
  <polyline
    points="14,36 18,30 23,32 28,24 34,19"
    fill="none"
    stroke="#4ADE80"
    stroke-width="2"
    stroke-linecap="round"
    stroke-linejoin="round"/>
  <!-- Chart area fill -->
  <polygon
    points="14,36 18,30 23,32 28,24 34,19 34,39 14,39"
    fill="rgba(74,222,128,0.07)"/>
  <!-- Endpoint dot -->
  <circle cx="34" cy="19" r="2.5" fill="#0A1628" stroke="#4ADE80" stroke-width="2"/>
  <circle cx="34" cy="19" r="1" fill="#4ADE80"/>
  <!-- Text lines (redacted/placeholder lines) -->
  <line x1="13" y1="43" x2="35" y2="43" stroke="rgba(255,255,255,0.15)" stroke-width="1.5" stroke-linecap="round"/>
  <!-- Small envelope badge overlay (bottom-right corner) -->
  <rect x="29" y="38" width="14" height="10" rx="2.5" fill="#0A1628" stroke="#00D4FF" stroke-width="1.2"/>
  <path d="M29 38 L36 43 L43 38" fill="none" stroke="#00D4FF" stroke-width="1" stroke-linecap="round" stroke-linejoin="round"/>
</svg>
